<svg width="92" height="44" viewBox="0 0 92 44" fill="none" xmlns="http://www.w3.org/2000/svg">
<rect x="0.494995" y="1.41992" width="91" height="42" rx="21" fill="#171802"/>
<rect x="0.494995" y="1.41992" width="91" height="42" rx="21" stroke="#363804"/>
<path d="M19.6662 26.9199V17.1199H20.7022V26.9199H19.6662ZM27.4328 19.4999C28.0301 19.4999 28.5528 19.6166 29.0008 19.8499C29.4581 20.0739 29.8128 20.4193 30.0648 20.8859C30.3261 21.3526 30.4568 21.9406 30.4568 22.6499V26.9199H29.4628V22.7479C29.4628 21.9733 29.2668 21.3899 28.8748 20.9979C28.4921 20.5966 27.9508 20.3959 27.2508 20.3959C26.7281 20.3959 26.2708 20.5033 25.8788 20.7179C25.4961 20.9233 25.1975 21.2266 24.9828 21.6279C24.7775 22.0199 24.6748 22.4959 24.6748 23.0559V26.9199H23.6808V19.5699H24.6328V21.5859L24.4788 21.2079C24.7121 20.6759 25.0855 20.2606 25.5988 19.9619C26.1121 19.6539 26.7235 19.4999 27.4328 19.4999ZM35.1157 26.9899C34.5091 26.9899 33.9351 26.9059 33.3937 26.7379C32.8524 26.5606 32.4277 26.3413 32.1197 26.0799L32.5677 25.2959C32.8664 25.5199 33.2491 25.7159 33.7157 25.8839C34.1824 26.0426 34.6724 26.1219 35.1857 26.1219C35.8857 26.1219 36.3897 26.0146 36.6977 25.7999C37.0057 25.5759 37.1597 25.2819 37.1597 24.9179C37.1597 24.6473 37.0711 24.4373 36.8937 24.2879C36.7257 24.1293 36.5017 24.0126 36.2217 23.9379C35.9417 23.8539 35.6291 23.7839 35.2837 23.7279C34.9384 23.6719 34.5931 23.6066 34.2477 23.5319C33.9117 23.4573 33.6037 23.3499 33.3237 23.2099C33.0437 23.0606 32.8151 22.8599 32.6377 22.6079C32.4697 22.3559 32.3857 22.0199 32.3857 21.5999C32.3857 21.1986 32.4977 20.8393 32.7217 20.5219C32.9457 20.2046 33.2724 19.9573 33.7017 19.7799C34.1404 19.5933 34.6724 19.4999 35.2977 19.4999C35.7737 19.4999 36.2497 19.5653 36.7257 19.6959C37.2017 19.8173 37.5937 19.9806 37.9017 20.1859L37.4677 20.9839C37.1411 20.7599 36.7911 20.6013 36.4177 20.5079C36.0444 20.4053 35.6711 20.3539 35.2977 20.3539C34.6351 20.3539 34.1451 20.4706 33.8277 20.7039C33.5197 20.9279 33.3657 21.2173 33.3657 21.5719C33.3657 21.8519 33.4497 22.0713 33.6177 22.2299C33.7951 22.3886 34.0237 22.5146 34.3037 22.6079C34.5931 22.6919 34.9057 22.7619 35.2417 22.8179C35.5871 22.8739 35.9277 22.9439 36.2637 23.0279C36.6091 23.1026 36.9217 23.2099 37.2017 23.3499C37.4911 23.4806 37.7197 23.6719 37.8877 23.9239C38.0651 24.1666 38.1537 24.4886 38.1537 24.8899C38.1537 25.3193 38.0324 25.6926 37.7897 26.0099C37.5564 26.3179 37.2111 26.5606 36.7537 26.7379C36.3057 26.9059 35.7597 26.9899 35.1157 26.9899ZM39.9777 26.9199V19.5699H40.9717V26.9199H39.9777ZM40.4817 17.9459C40.2763 17.9459 40.1037 17.8759 39.9637 17.7359C39.8237 17.5959 39.7537 17.4279 39.7537 17.2319C39.7537 17.0359 39.8237 16.8726 39.9637 16.7419C40.1037 16.6019 40.2763 16.5319 40.4817 16.5319C40.687 16.5319 40.8597 16.5973 40.9997 16.7279C41.1397 16.8586 41.2097 17.0219 41.2097 17.2179C41.2097 17.4233 41.1397 17.5959 40.9997 17.7359C40.869 17.8759 40.6963 17.9459 40.4817 17.9459ZM46.8734 29.7059C46.2014 29.7059 45.5574 29.6079 44.9414 29.4119C44.3254 29.2159 43.8261 28.9359 43.4434 28.5719L43.9474 27.8159C44.2928 28.1239 44.7174 28.3666 45.2214 28.5439C45.7348 28.7306 46.2761 28.8239 46.8454 28.8239C47.7788 28.8239 48.4648 28.6046 48.9034 28.1659C49.3421 27.7366 49.5614 27.0646 49.5614 26.1499V24.3159L49.7014 23.0559L49.6034 21.7959V19.5699H50.5554V26.0239C50.5554 27.2933 50.2428 28.2219 49.6174 28.8099C49.0014 29.4073 48.0868 29.7059 46.8734 29.7059ZM46.6914 26.6399C45.9914 26.6399 45.3614 26.4906 44.8014 26.1919C44.2414 25.8839 43.7981 25.4593 43.4714 24.9179C43.1541 24.3766 42.9954 23.7559 42.9954 23.0559C42.9954 22.3559 43.1541 21.7399 43.4714 21.2079C43.7981 20.6666 44.2414 20.2466 44.8014 19.9479C45.3614 19.6493 45.9914 19.4999 46.6914 19.4999C47.3448 19.4999 47.9328 19.6353 48.4554 19.9059C48.9781 20.1766 49.3934 20.5779 49.7014 21.1099C50.0094 21.6419 50.1634 22.2906 50.1634 23.0559C50.1634 23.8213 50.0094 24.4699 49.7014 25.0019C49.3934 25.5339 48.9781 25.9399 48.4554 26.2199C47.9328 26.4999 47.3448 26.6399 46.6914 26.6399ZM46.7894 25.7579C47.3308 25.7579 47.8114 25.6459 48.2314 25.4219C48.6514 25.1886 48.9828 24.8713 49.2254 24.4699C49.4681 24.0593 49.5894 23.5879 49.5894 23.0559C49.5894 22.5239 49.4681 22.0573 49.2254 21.6559C48.9828 21.2546 48.6514 20.9419 48.2314 20.7179C47.8114 20.4846 47.3308 20.3679 46.7894 20.3679C46.2574 20.3679 45.7768 20.4846 45.3474 20.7179C44.9274 20.9419 44.5961 21.2546 44.3534 21.6559C44.1201 22.0573 44.0034 22.5239 44.0034 23.0559C44.0034 23.5879 44.1201 24.0593 44.3534 24.4699C44.5961 24.8713 44.9274 25.1886 45.3474 25.4219C45.7768 25.6459 46.2574 25.7579 46.7894 25.7579ZM57.0734 19.4999C57.6708 19.4999 58.1934 19.6166 58.6414 19.8499C59.0988 20.0739 59.4534 20.4193 59.7054 20.8859C59.9668 21.3526 60.0974 21.9406 60.0974 22.6499V26.9199H59.1034V22.7479C59.1034 21.9733 58.9074 21.3899 58.5154 20.9979C58.1328 20.5966 57.5914 20.3959 56.8914 20.3959C56.3688 20.3959 55.9114 20.5033 55.5194 20.7179C55.1368 20.9233 54.8381 21.2266 54.6234 21.6279C54.4181 22.0199 54.3154 22.4959 54.3154 23.0559V26.9199H53.3214V16.5319H54.3154V21.5859L54.1194 21.2079C54.3528 20.6759 54.7261 20.2606 55.2394 19.9619C55.7528 19.6539 56.3641 19.4999 57.0734 19.4999ZM65.1064 26.9899C64.4157 26.9899 63.8837 26.8033 63.5104 26.4299C63.137 26.0566 62.9504 25.5293 62.9504 24.8479V17.9459H63.9444V24.7919C63.9444 25.2213 64.0517 25.5526 64.2664 25.7859C64.4904 26.0193 64.8077 26.1359 65.2184 26.1359C65.657 26.1359 66.021 26.0099 66.3104 25.7579L66.6604 26.4719C66.4644 26.6493 66.2264 26.7799 65.9464 26.8639C65.6757 26.9479 65.3957 26.9899 65.1064 26.9899ZM61.6344 20.3959V19.5699H66.1844V20.3959H61.6344ZM70.4439 26.9899C69.8372 26.9899 69.2632 26.9059 68.7219 26.7379C68.1805 26.5606 67.7559 26.3413 67.4479 26.0799L67.8959 25.2959C68.1945 25.5199 68.5772 25.7159 69.0439 25.8839C69.5105 26.0426 70.0005 26.1219 70.5139 26.1219C71.2139 26.1219 71.7179 26.0146 72.0259 25.7999C72.3339 25.5759 72.4879 25.2819 72.4879 24.9179C72.4879 24.6473 72.3992 24.4373 72.2219 24.2879C72.0539 24.1293 71.8299 24.0126 71.5499 23.9379C71.2699 23.8539 70.9572 23.7839 70.6119 23.7279C70.2665 23.6719 69.9212 23.6066 69.5759 23.5319C69.2399 23.4573 68.9319 23.3499 68.6519 23.2099C68.3719 23.0606 68.1432 22.8599 67.9659 22.6079C67.7979 22.3559 67.7139 22.0199 67.7139 21.5999C67.7139 21.1986 67.8259 20.8393 68.0499 20.5219C68.2739 20.2046 68.6005 19.9573 69.0299 19.7799C69.4685 19.5933 70.0005 19.4999 70.6259 19.4999C71.1019 19.4999 71.5779 19.5653 72.0539 19.6959C72.5299 19.8173 72.9219 19.9806 73.2299 20.1859L72.7959 20.9839C72.4692 20.7599 72.1192 20.6013 71.7459 20.5079C71.3725 20.4053 70.9992 20.3539 70.6259 20.3539C69.9632 20.3539 69.4732 20.4706 69.1559 20.7039C68.8479 20.9279 68.6939 21.2173 68.6939 21.5719C68.6939 21.8519 68.7779 22.0713 68.9459 22.2299C69.1232 22.3886 69.3519 22.5146 69.6319 22.6079C69.9212 22.6919 70.2339 22.7619 70.5699 22.8179C70.9152 22.8739 71.2559 22.9439 71.5919 23.0279C71.9372 23.1026 72.2499 23.2099 72.5299 23.3499C72.8192 23.4806 73.0479 23.6719 73.2159 23.9239C73.3932 24.1666 73.4819 24.4886 73.4819 24.8899C73.4819 25.3193 73.3605 25.6926 73.1179 26.0099C72.8845 26.3179 72.5392 26.5606 72.0819 26.7379C71.6339 26.9059 71.0879 26.9899 70.4439 26.9899Z" fill="#FFBE0D"/>
</svg>
