<svg width="327" height="171" viewBox="0 0 327 171" fill="none" xmlns="http://www.w3.org/2000/svg">
<rect y="37.01" width="326.67" height="58" rx="29" fill="#FFBE0D"/>
<path d="M115.769 71.138C114.916 71.138 114.1 71.01 113.321 70.754C112.543 70.4873 111.929 70.146 111.481 69.73L112.073 68.482C112.5 68.8553 113.044 69.1647 113.705 69.41C114.367 69.6553 115.055 69.778 115.769 69.778C116.42 69.778 116.948 69.7033 117.353 69.554C117.759 69.4047 118.057 69.202 118.249 68.946C118.441 68.6793 118.537 68.3807 118.537 68.05C118.537 67.666 118.409 67.3567 118.153 67.122C117.908 66.8873 117.583 66.7007 117.177 66.562C116.783 66.4127 116.345 66.2847 115.865 66.178C115.385 66.0713 114.9 65.9487 114.409 65.81C113.929 65.6607 113.487 65.474 113.081 65.25C112.687 65.026 112.367 64.7273 112.121 64.354C111.876 63.97 111.753 63.4793 111.753 62.882C111.753 62.306 111.903 61.778 112.201 61.298C112.511 60.8073 112.98 60.418 113.609 60.13C114.249 59.8313 115.06 59.682 116.041 59.682C116.692 59.682 117.337 59.7673 117.977 59.938C118.617 60.1087 119.172 60.354 119.641 60.674L119.113 61.954C118.633 61.634 118.127 61.4047 117.593 61.266C117.06 61.1167 116.543 61.042 116.041 61.042C115.412 61.042 114.895 61.122 114.489 61.282C114.084 61.442 113.785 61.6553 113.593 61.922C113.412 62.1887 113.321 62.4873 113.321 62.818C113.321 63.2127 113.444 63.5273 113.689 63.762C113.945 63.9967 114.271 64.1833 114.665 64.322C115.071 64.4607 115.513 64.5887 115.993 64.706C116.473 64.8127 116.953 64.9353 117.433 65.074C117.924 65.2127 118.367 65.394 118.761 65.618C119.167 65.842 119.492 66.1407 119.737 66.514C119.983 66.8873 120.105 67.3673 120.105 67.954C120.105 68.5193 119.951 69.0473 119.641 69.538C119.332 70.018 118.852 70.4073 118.201 70.706C117.561 70.994 116.751 71.138 115.769 71.138ZM125.787 71.106C125.061 71.106 124.421 70.9727 123.867 70.706C123.323 70.4393 122.896 70.034 122.587 69.49C122.288 68.9353 122.139 68.242 122.139 67.41V62.53H123.675V67.234C123.675 68.066 123.872 68.69 124.267 69.106C124.672 69.522 125.237 69.73 125.963 69.73C126.496 69.73 126.96 69.6233 127.355 69.41C127.749 69.186 128.053 68.866 128.267 68.45C128.48 68.0233 128.587 67.5113 128.587 66.914V62.53H130.123V71.01H128.667V68.722L128.907 69.33C128.629 69.8953 128.213 70.3327 127.659 70.642C127.104 70.9513 126.48 71.106 125.787 71.106ZM137.543 71.106C136.817 71.106 136.161 70.946 135.575 70.626C134.999 70.2953 134.54 69.81 134.199 69.17C133.868 68.53 133.703 67.73 133.703 66.77C133.703 65.81 133.873 65.01 134.215 64.37C134.567 63.73 135.031 63.25 135.607 62.93C136.193 62.61 136.839 62.45 137.543 62.45C138.375 62.45 139.111 62.6313 139.751 62.994C140.391 63.3567 140.897 63.8633 141.271 64.514C141.644 65.154 141.831 65.906 141.831 66.77C141.831 67.634 141.644 68.3913 141.271 69.042C140.897 69.6927 140.391 70.1993 139.751 70.562C139.111 70.9247 138.375 71.106 137.543 71.106ZM133.047 71.01V59.138H134.583V64.786L134.423 66.754L134.519 68.722V71.01H133.047ZM137.415 69.762C137.959 69.762 138.444 69.6393 138.871 69.394C139.308 69.1487 139.649 68.802 139.895 68.354C140.151 67.8953 140.279 67.3673 140.279 66.77C140.279 66.162 140.151 65.6393 139.895 65.202C139.649 64.754 139.308 64.4073 138.871 64.162C138.444 63.9167 137.959 63.794 137.415 63.794C136.881 63.794 136.396 63.9167 135.959 64.162C135.532 64.4073 135.191 64.754 134.935 65.202C134.689 65.6393 134.567 66.162 134.567 66.77C134.567 67.3673 134.689 67.8953 134.935 68.354C135.191 68.802 135.532 69.1487 135.959 69.394C136.396 69.6393 136.881 69.762 137.415 69.762ZM146.385 71.106C145.681 71.106 145.009 71.01 144.369 70.818C143.74 70.626 143.244 70.3913 142.881 70.114L143.521 68.898C143.884 69.1433 144.332 69.3513 144.865 69.522C145.398 69.6927 145.942 69.778 146.497 69.778C147.212 69.778 147.724 69.6767 148.033 69.474C148.353 69.2713 148.513 68.9887 148.513 68.626C148.513 68.3593 148.417 68.1513 148.225 68.002C148.033 67.8527 147.777 67.7407 147.457 67.666C147.148 67.5913 146.801 67.5273 146.417 67.474C146.033 67.41 145.649 67.3353 145.265 67.25C144.881 67.154 144.529 67.026 144.209 66.866C143.889 66.6953 143.633 66.466 143.441 66.178C143.249 65.8793 143.153 65.4847 143.153 64.994C143.153 64.482 143.297 64.034 143.585 63.65C143.873 63.266 144.278 62.9727 144.801 62.77C145.334 62.5567 145.964 62.45 146.689 62.45C147.244 62.45 147.804 62.5193 148.369 62.658C148.945 62.786 149.414 62.9727 149.777 63.218L149.121 64.434C148.737 64.178 148.337 64.002 147.921 63.906C147.505 63.81 147.089 63.762 146.673 63.762C146.001 63.762 145.5 63.874 145.169 64.098C144.838 64.3113 144.673 64.5887 144.673 64.93C144.673 65.218 144.769 65.442 144.961 65.602C145.164 65.7513 145.42 65.8687 145.729 65.954C146.049 66.0393 146.401 66.114 146.785 66.178C147.169 66.2313 147.553 66.306 147.937 66.402C148.321 66.4873 148.668 66.61 148.977 66.77C149.297 66.93 149.553 67.154 149.745 67.442C149.948 67.73 150.049 68.114 150.049 68.594C150.049 69.106 149.9 69.5487 149.601 69.922C149.302 70.2953 148.881 70.5887 148.337 70.802C147.793 71.0047 147.142 71.106 146.385 71.106ZM155.665 71.106C154.801 71.106 154.027 70.9193 153.345 70.546C152.673 70.1727 152.145 69.6607 151.761 69.01C151.377 68.3593 151.185 67.6127 151.185 66.77C151.185 65.9273 151.377 65.1807 151.761 64.53C152.145 63.8793 152.673 63.3727 153.345 63.01C154.027 62.6367 154.801 62.45 155.665 62.45C156.433 62.45 157.115 62.6047 157.713 62.914C158.321 63.2127 158.79 63.6607 159.121 64.258L157.953 65.01C157.675 64.594 157.334 64.29 156.929 64.098C156.534 63.8953 156.107 63.794 155.649 63.794C155.094 63.794 154.598 63.9167 154.161 64.162C153.723 64.4073 153.377 64.754 153.121 65.202C152.865 65.6393 152.737 66.162 152.737 66.77C152.737 67.378 152.865 67.906 153.121 68.354C153.377 68.802 153.723 69.1487 154.161 69.394C154.598 69.6393 155.094 69.762 155.649 69.762C156.107 69.762 156.534 69.666 156.929 69.474C157.334 69.2713 157.675 68.962 157.953 68.546L159.121 69.282C158.79 69.8687 158.321 70.322 157.713 70.642C157.115 70.9513 156.433 71.106 155.665 71.106ZM161.109 71.01V62.53H162.581V64.834L162.437 64.258C162.672 63.6713 163.067 63.2233 163.621 62.914C164.176 62.6047 164.859 62.45 165.669 62.45V63.938C165.605 63.9273 165.541 63.922 165.477 63.922C165.424 63.922 165.371 63.922 165.317 63.922C164.496 63.922 163.845 64.1673 163.365 64.658C162.885 65.1487 162.645 65.858 162.645 66.786V71.01H161.109ZM167.562 71.01V62.53H169.098V71.01H167.562ZM168.33 60.898C168.032 60.898 167.781 60.802 167.578 60.61C167.386 60.418 167.29 60.1833 167.29 59.906C167.29 59.618 167.386 59.378 167.578 59.186C167.781 58.994 168.032 58.898 168.33 58.898C168.629 58.898 168.874 58.994 169.066 59.186C169.269 59.3673 169.37 59.5967 169.37 59.874C169.37 60.162 169.274 60.4073 169.082 60.61C168.89 60.802 168.64 60.898 168.33 60.898ZM176.527 71.106C175.802 71.106 175.146 70.946 174.559 70.626C173.983 70.2953 173.525 69.81 173.183 69.17C172.853 68.53 172.687 67.73 172.687 66.77C172.687 65.81 172.858 65.01 173.199 64.37C173.551 63.73 174.015 63.25 174.591 62.93C175.178 62.61 175.823 62.45 176.527 62.45C177.359 62.45 178.095 62.6313 178.735 62.994C179.375 63.3567 179.882 63.8633 180.255 64.514C180.629 65.154 180.815 65.906 180.815 66.77C180.815 67.634 180.629 68.3913 180.255 69.042C179.882 69.6927 179.375 70.1993 178.735 70.562C178.095 70.9247 177.359 71.106 176.527 71.106ZM172.031 71.01V59.138H173.567V64.786L173.407 66.754L173.503 68.722V71.01H172.031ZM176.399 69.762C176.943 69.762 177.429 69.6393 177.855 69.394C178.293 69.1487 178.634 68.802 178.879 68.354C179.135 67.8953 179.263 67.3673 179.263 66.77C179.263 66.162 179.135 65.6393 178.879 65.202C178.634 64.754 178.293 64.4073 177.855 64.162C177.429 63.9167 176.943 63.794 176.399 63.794C175.866 63.794 175.381 63.9167 174.943 64.162C174.517 64.4073 174.175 64.754 173.919 65.202C173.674 65.6393 173.551 66.162 173.551 66.77C173.551 67.3673 173.674 67.8953 173.919 68.354C174.175 68.802 174.517 69.1487 174.943 69.394C175.381 69.6393 175.866 69.762 176.399 69.762ZM186.713 71.106C185.807 71.106 185.007 70.9193 184.313 70.546C183.631 70.1727 183.097 69.6607 182.713 69.01C182.34 68.3593 182.153 67.6127 182.153 66.77C182.153 65.9273 182.335 65.1807 182.697 64.53C183.071 63.8793 183.577 63.3727 184.217 63.01C184.868 62.6367 185.599 62.45 186.409 62.45C187.231 62.45 187.956 62.6313 188.585 62.994C189.215 63.3567 189.705 63.8687 190.057 64.53C190.42 65.1807 190.601 65.9433 190.601 66.818C190.601 66.882 190.596 66.9567 190.585 67.042C190.585 67.1273 190.58 67.2073 190.569 67.282H183.353V66.178H189.769L189.145 66.562C189.156 66.018 189.044 65.5327 188.809 65.106C188.575 64.6793 188.249 64.3487 187.833 64.114C187.428 63.8687 186.953 63.746 186.409 63.746C185.876 63.746 185.401 63.8687 184.985 64.114C184.569 64.3487 184.244 64.6847 184.009 65.122C183.775 65.5487 183.657 66.0393 183.657 66.594V66.85C183.657 67.4153 183.785 67.922 184.041 68.37C184.308 68.8073 184.676 69.1487 185.145 69.394C185.615 69.6393 186.153 69.762 186.761 69.762C187.263 69.762 187.716 69.6767 188.121 69.506C188.537 69.3353 188.9 69.0793 189.209 68.738L190.057 69.73C189.673 70.178 189.193 70.5193 188.617 70.754C188.052 70.9887 187.417 71.106 186.713 71.106Z" fill="black"/>
<a href="https://www.figma.com/design/tuma36ZS8568tWgu02HaHn?node-id=1045-2">
<rect fill="black" fill-opacity="0" y="1.848" width="80.4482" height="19.504"/>
</a>
<g clip-path="url(#clip0_843_927)">
<g clip-path="url(#clip1_843_927)">
<mask id="mask0_843_927" style="mask-type:luminance" maskUnits="userSpaceOnUse" x="199" y="58" width="17" height="17">
<path d="M215.825 58.01H199.825V74.01H215.825V58.01Z" fill="white"/>
</mask>
<g mask="url(#mask0_843_927)">
<path d="M205.825 61.01L210.825 66.01L205.825 71.01" stroke="black" stroke-linecap="round" stroke-linejoin="round"/>
</g>
</g>
</g>
<rect x="0.5" y="111.5" width="325.67" height="59" rx="29.5" stroke="#313131"/>
<path d="M110.88 146V134.8H115.904C117.195 134.8 118.187 135.061 118.88 135.584C119.574 136.096 119.92 136.8 119.92 137.696C119.92 138.304 119.782 138.816 119.504 139.232C119.238 139.648 118.875 139.968 118.416 140.192C117.958 140.416 117.462 140.528 116.928 140.528L117.216 140.048C117.856 140.048 118.422 140.16 118.912 140.384C119.403 140.608 119.792 140.939 120.08 141.376C120.368 141.803 120.512 142.336 120.512 142.976C120.512 143.936 120.15 144.683 119.424 145.216C118.71 145.739 117.643 146 116.224 146H110.88ZM112.48 144.704H116.16C117.046 144.704 117.723 144.555 118.192 144.256C118.662 143.957 118.896 143.488 118.896 142.848C118.896 142.197 118.662 141.723 118.192 141.424C117.723 141.125 117.046 140.976 116.16 140.976H112.336V139.68H115.76C116.571 139.68 117.2 139.531 117.648 139.232C118.096 138.933 118.32 138.485 118.32 137.888C118.32 137.291 118.096 136.843 117.648 136.544C117.2 136.245 116.571 136.096 115.76 136.096H112.48V144.704ZM126.398 146.096C125.544 146.096 124.787 145.909 124.126 145.536C123.464 145.163 122.942 144.651 122.558 144C122.174 143.339 121.982 142.592 121.982 141.76C121.982 140.917 122.174 140.171 122.558 139.52C122.942 138.869 123.464 138.363 124.126 138C124.787 137.627 125.544 137.44 126.398 137.44C127.24 137.44 127.992 137.627 128.654 138C129.326 138.363 129.848 138.869 130.222 139.52C130.606 140.16 130.798 140.907 130.798 141.76C130.798 142.603 130.606 143.349 130.222 144C129.848 144.651 129.326 145.163 128.654 145.536C127.992 145.909 127.24 146.096 126.398 146.096ZM126.398 144.752C126.942 144.752 127.427 144.629 127.854 144.384C128.291 144.139 128.632 143.792 128.878 143.344C129.123 142.885 129.246 142.357 129.246 141.76C129.246 141.152 129.123 140.629 128.878 140.192C128.632 139.744 128.291 139.397 127.854 139.152C127.427 138.907 126.942 138.784 126.398 138.784C125.854 138.784 125.368 138.907 124.942 139.152C124.515 139.397 124.174 139.744 123.918 140.192C123.662 140.629 123.534 141.152 123.534 141.76C123.534 142.357 123.662 142.885 123.918 143.344C124.174 143.792 124.515 144.139 124.942 144.384C125.368 144.629 125.854 144.752 126.398 144.752ZM136.554 146.096C135.7 146.096 134.943 145.909 134.282 145.536C133.62 145.163 133.098 144.651 132.714 144C132.33 143.339 132.138 142.592 132.138 141.76C132.138 140.917 132.33 140.171 132.714 139.52C133.098 138.869 133.62 138.363 134.282 138C134.943 137.627 135.7 137.44 136.554 137.44C137.396 137.44 138.148 137.627 138.81 138C139.482 138.363 140.004 138.869 140.378 139.52C140.762 140.16 140.954 140.907 140.954 141.76C140.954 142.603 140.762 143.349 140.378 144C140.004 144.651 139.482 145.163 138.81 145.536C138.148 145.909 137.396 146.096 136.554 146.096ZM136.554 144.752C137.098 144.752 137.583 144.629 138.01 144.384C138.447 144.139 138.788 143.792 139.034 143.344C139.279 142.885 139.402 142.357 139.402 141.76C139.402 141.152 139.279 140.629 139.034 140.192C138.788 139.744 138.447 139.397 138.01 139.152C137.583 138.907 137.098 138.784 136.554 138.784C136.01 138.784 135.524 138.907 135.098 139.152C134.671 139.397 134.33 139.744 134.074 140.192C133.818 140.629 133.69 141.152 133.69 141.76C133.69 142.357 133.818 142.885 134.074 143.344C134.33 143.792 134.671 144.139 135.098 144.384C135.524 144.629 136.01 144.752 136.554 144.752ZM144.326 143.952L144.358 141.984L149.238 137.52H151.094L147.35 141.2L146.518 141.904L144.326 143.952ZM143.078 146V134.128H144.614V146H143.078ZM149.558 146L146.23 141.872L147.222 140.64L151.446 146H149.558ZM162.498 146V144.208L162.418 143.872V140.816C162.418 140.165 162.226 139.664 161.842 139.312C161.469 138.949 160.904 138.768 160.146 138.768C159.645 138.768 159.154 138.853 158.674 139.024C158.194 139.184 157.789 139.403 157.458 139.68L156.818 138.528C157.256 138.176 157.778 137.909 158.386 137.728C159.005 137.536 159.65 137.44 160.322 137.44C161.485 137.44 162.381 137.723 163.01 138.288C163.64 138.853 163.954 139.717 163.954 140.88V146H162.498ZM159.714 146.096C159.085 146.096 158.53 145.989 158.05 145.776C157.581 145.563 157.218 145.269 156.962 144.896C156.706 144.512 156.578 144.08 156.578 143.6C156.578 143.141 156.685 142.725 156.898 142.352C157.122 141.979 157.48 141.68 157.97 141.456C158.472 141.232 159.144 141.12 159.986 141.12H162.674V142.224H160.05C159.282 142.224 158.765 142.352 158.498 142.608C158.232 142.864 158.098 143.173 158.098 143.536C158.098 143.952 158.264 144.288 158.594 144.544C158.925 144.789 159.384 144.912 159.97 144.912C160.546 144.912 161.048 144.784 161.474 144.528C161.912 144.272 162.226 143.899 162.418 143.408L162.722 144.464C162.52 144.965 162.162 145.365 161.65 145.664C161.138 145.952 160.493 146.096 159.714 146.096ZM174.598 146.096C173.776 146.096 173.04 145.915 172.39 145.552C171.75 145.189 171.243 144.683 170.87 144.032C170.496 143.381 170.31 142.624 170.31 141.76C170.31 140.896 170.496 140.144 170.87 139.504C171.243 138.853 171.75 138.347 172.39 137.984C173.04 137.621 173.776 137.44 174.598 137.44C175.312 137.44 175.958 137.6 176.534 137.92C177.11 138.24 177.568 138.72 177.91 139.36C178.262 140 178.438 140.8 178.438 141.76C178.438 142.72 178.267 143.52 177.926 144.16C177.595 144.8 177.142 145.285 176.566 145.616C175.99 145.936 175.334 146.096 174.598 146.096ZM174.726 144.752C175.259 144.752 175.739 144.629 176.166 144.384C176.603 144.139 176.944 143.792 177.19 143.344C177.446 142.885 177.574 142.357 177.574 141.76C177.574 141.152 177.446 140.629 177.19 140.192C176.944 139.744 176.603 139.397 176.166 139.152C175.739 138.907 175.259 138.784 174.726 138.784C174.182 138.784 173.696 138.907 173.27 139.152C172.843 139.397 172.502 139.744 172.246 140.192C171.99 140.629 171.862 141.152 171.862 141.76C171.862 142.357 171.99 142.885 172.246 143.344C172.502 143.792 172.843 144.139 173.27 144.384C173.696 144.629 174.182 144.752 174.726 144.752ZM177.622 146V143.712L177.718 141.744L177.558 139.776V134.128H179.094V146H177.622ZM185.776 146.096C184.869 146.096 184.069 145.909 183.376 145.536C182.693 145.163 182.16 144.651 181.776 144C181.403 143.349 181.216 142.603 181.216 141.76C181.216 140.917 181.397 140.171 181.76 139.52C182.133 138.869 182.64 138.363 183.28 138C183.931 137.627 184.661 137.44 185.472 137.44C186.293 137.44 187.019 137.621 187.648 137.984C188.277 138.347 188.768 138.859 189.12 139.52C189.483 140.171 189.664 140.933 189.664 141.808C189.664 141.872 189.659 141.947 189.648 142.032C189.648 142.117 189.643 142.197 189.632 142.272H182.416V141.168H188.832L188.208 141.552C188.219 141.008 188.107 140.523 187.872 140.096C187.637 139.669 187.312 139.339 186.896 139.104C186.491 138.859 186.016 138.736 185.472 138.736C184.939 138.736 184.464 138.859 184.048 139.104C183.632 139.339 183.307 139.675 183.072 140.112C182.837 140.539 182.72 141.029 182.72 141.584V141.84C182.72 142.405 182.848 142.912 183.104 143.36C183.371 143.797 183.739 144.139 184.208 144.384C184.677 144.629 185.216 144.752 185.824 144.752C186.325 144.752 186.779 144.667 187.184 144.496C187.6 144.325 187.963 144.069 188.272 143.728L189.12 144.72C188.736 145.168 188.256 145.509 187.68 145.744C187.115 145.979 186.48 146.096 185.776 146.096ZM202.405 137.44C203.087 137.44 203.69 137.573 204.213 137.84C204.735 138.107 205.141 138.512 205.429 139.056C205.727 139.6 205.877 140.288 205.877 141.12V146H204.341V141.296C204.341 140.475 204.149 139.856 203.765 139.44C203.381 139.024 202.842 138.816 202.149 138.816C201.637 138.816 201.189 138.923 200.805 139.136C200.421 139.349 200.122 139.664 199.909 140.08C199.706 140.496 199.605 141.013 199.605 141.632V146H198.069V141.296C198.069 140.475 197.877 139.856 197.493 139.44C197.119 139.024 196.581 138.816 195.877 138.816C195.375 138.816 194.933 138.923 194.549 139.136C194.165 139.349 193.866 139.664 193.653 140.08C193.439 140.496 193.333 141.013 193.333 141.632V146H191.797V137.52H193.269V139.776L193.029 139.2C193.295 138.645 193.706 138.213 194.261 137.904C194.815 137.595 195.461 137.44 196.197 137.44C197.007 137.44 197.706 137.643 198.293 138.048C198.879 138.443 199.263 139.045 199.445 139.856L198.821 139.6C199.077 138.949 199.525 138.427 200.165 138.032C200.805 137.637 201.551 137.44 202.405 137.44ZM212.335 146.096C211.482 146.096 210.724 145.909 210.063 145.536C209.402 145.163 208.879 144.651 208.495 144C208.111 143.339 207.919 142.592 207.919 141.76C207.919 140.917 208.111 140.171 208.495 139.52C208.879 138.869 209.402 138.363 210.063 138C210.724 137.627 211.482 137.44 212.335 137.44C213.178 137.44 213.93 137.627 214.591 138C215.263 138.363 215.786 138.869 216.159 139.52C216.543 140.16 216.735 140.907 216.735 141.76C216.735 142.603 216.543 143.349 216.159 144C215.786 144.651 215.263 145.163 214.591 145.536C213.93 145.909 213.178 146.096 212.335 146.096ZM212.335 144.752C212.879 144.752 213.364 144.629 213.791 144.384C214.228 144.139 214.57 143.792 214.815 143.344C215.06 142.885 215.183 142.357 215.183 141.76C215.183 141.152 215.06 140.629 214.815 140.192C214.57 139.744 214.228 139.397 213.791 139.152C213.364 138.907 212.879 138.784 212.335 138.784C211.791 138.784 211.306 138.907 210.879 139.152C210.452 139.397 210.111 139.744 209.855 140.192C209.599 140.629 209.471 141.152 209.471 141.76C209.471 142.357 209.599 142.885 209.855 143.344C210.111 143.792 210.452 144.139 210.879 144.384C211.306 144.629 211.791 144.752 212.335 144.752Z" fill="white"/>
<defs>
<clipPath id="clip0_843_927">
<rect width="16" height="17" fill="white" transform="translate(199.825 57.51)"/>
</clipPath>
<clipPath id="clip1_843_927">
<rect width="16" height="17" fill="white" transform="translate(199.825 57.51)"/>
</clipPath>
</defs>
</svg>
