<svg width="176" height="45" viewBox="0 0 176 45" fill="none" xmlns="http://www.w3.org/2000/svg">
<rect x="0.494995" y="0.240234" width="175" height="44" rx="22" fill="#FFBE0D"/>
<path d="M23.175 27.2402V16.0402H28.199C29.4897 16.0402 30.4817 16.3016 31.175 16.8242C31.8683 17.3362 32.215 18.0402 32.215 18.9362C32.215 19.5442 32.0763 20.0562 31.799 20.4722C31.5323 20.8882 31.1697 21.2082 30.711 21.4322C30.2523 21.6562 29.7563 21.7682 29.223 21.7682L29.511 21.2882C30.151 21.2882 30.7163 21.4002 31.207 21.6242C31.6977 21.8482 32.087 22.1789 32.375 22.6162C32.663 23.0429 32.807 23.5762 32.807 24.2162C32.807 25.1762 32.4443 25.9229 31.719 26.4562C31.0043 26.9789 29.9377 27.2402 28.519 27.2402H23.175ZM24.775 25.9442H28.455C29.3403 25.9442 30.0177 25.7949 30.487 25.4962C30.9563 25.1976 31.191 24.7282 31.191 24.0882C31.191 23.4376 30.9563 22.9629 30.487 22.6642C30.0177 22.3656 29.3403 22.2162 28.455 22.2162H24.631V20.9202H28.055C28.8657 20.9202 29.495 20.7709 29.943 20.4722C30.391 20.1736 30.615 19.7256 30.615 19.1282C30.615 18.5309 30.391 18.0829 29.943 17.7842C29.495 17.4856 28.8657 17.3362 28.055 17.3362H24.775V25.9442ZM38.6924 27.3362C37.839 27.3362 37.0817 27.1496 36.4204 26.7762C35.759 26.4029 35.2364 25.8909 34.8524 25.2402C34.4684 24.5789 34.2764 23.8322 34.2764 23.0002C34.2764 22.1576 34.4684 21.4109 34.8524 20.7602C35.2364 20.1096 35.759 19.6029 36.4204 19.2402C37.0817 18.8669 37.839 18.6802 38.6924 18.6802C39.535 18.6802 40.287 18.8669 40.9484 19.2402C41.6204 19.6029 42.143 20.1096 42.5164 20.7602C42.9004 21.4002 43.0924 22.1469 43.0924 23.0002C43.0924 23.8429 42.9004 24.5896 42.5164 25.2402C42.143 25.8909 41.6204 26.4029 40.9484 26.7762C40.287 27.1496 39.535 27.3362 38.6924 27.3362ZM38.6924 25.9922C39.2364 25.9922 39.7217 25.8696 40.1484 25.6242C40.5857 25.3789 40.927 25.0322 41.1724 24.5842C41.4177 24.1256 41.5404 23.5976 41.5404 23.0002C41.5404 22.3922 41.4177 21.8696 41.1724 21.4322C40.927 20.9842 40.5857 20.6376 40.1484 20.3922C39.7217 20.1469 39.2364 20.0242 38.6924 20.0242C38.1484 20.0242 37.663 20.1469 37.2364 20.3922C36.8097 20.6376 36.4684 20.9842 36.2124 21.4322C35.9564 21.8696 35.8284 22.3922 35.8284 23.0002C35.8284 23.5976 35.9564 24.1256 36.2124 24.5842C36.4684 25.0322 36.8097 25.3789 37.2364 25.6242C37.663 25.8696 38.1484 25.9922 38.6924 25.9922ZM48.8486 27.3362C47.9953 27.3362 47.238 27.1496 46.5766 26.7762C45.9153 26.4029 45.3926 25.8909 45.0086 25.2402C44.6246 24.5789 44.4326 23.8322 44.4326 23.0002C44.4326 22.1576 44.6246 21.4109 45.0086 20.7602C45.3926 20.1096 45.9153 19.6029 46.5766 19.2402C47.238 18.8669 47.9953 18.6802 48.8486 18.6802C49.6913 18.6802 50.4433 18.8669 51.1046 19.2402C51.7766 19.6029 52.2993 20.1096 52.6726 20.7602C53.0566 21.4002 53.2486 22.1469 53.2486 23.0002C53.2486 23.8429 53.0566 24.5896 52.6726 25.2402C52.2993 25.8909 51.7766 26.4029 51.1046 26.7762C50.4433 27.1496 49.6913 27.3362 48.8486 27.3362ZM48.8486 25.9922C49.3926 25.9922 49.878 25.8696 50.3046 25.6242C50.742 25.3789 51.0833 25.0322 51.3286 24.5842C51.574 24.1256 51.6966 23.5976 51.6966 23.0002C51.6966 22.3922 51.574 21.8696 51.3286 21.4322C51.0833 20.9842 50.742 20.6376 50.3046 20.3922C49.878 20.1469 49.3926 20.0242 48.8486 20.0242C48.3046 20.0242 47.8193 20.1469 47.3926 20.3922C46.966 20.6376 46.6246 20.9842 46.3686 21.4322C46.1126 21.8696 45.9846 22.3922 45.9846 23.0002C45.9846 23.5976 46.1126 24.1256 46.3686 24.5842C46.6246 25.0322 46.966 25.3789 47.3926 25.6242C47.8193 25.8696 48.3046 25.9922 48.8486 25.9922ZM56.6209 25.1922L56.6529 23.2242L61.5329 18.7602H63.3889L59.6449 22.4402L58.8129 23.1442L56.6209 25.1922ZM55.3729 27.2402V15.3682H56.9089V27.2402H55.3729ZM61.8529 27.2402L58.5249 23.1122L59.5169 21.8802L63.7409 27.2402H61.8529ZM74.7931 27.2402V25.4482L74.7131 25.1122V22.0562C74.7131 21.4056 74.5211 20.9042 74.1371 20.5522C73.7638 20.1896 73.1985 20.0082 72.4411 20.0082C71.9398 20.0082 71.4491 20.0936 70.9691 20.2642C70.4891 20.4242 70.0838 20.6429 69.7531 20.9202L69.1131 19.7682C69.5505 19.4162 70.0731 19.1496 70.6811 18.9682C71.2998 18.7762 71.9451 18.6802 72.6171 18.6802C73.7798 18.6802 74.6758 18.9629 75.3051 19.5282C75.9345 20.0936 76.2491 20.9576 76.2491 22.1202V27.2402H74.7931ZM72.0091 27.3362C71.3798 27.3362 70.8251 27.2296 70.3451 27.0162C69.8758 26.8029 69.5131 26.5096 69.2571 26.1362C69.0011 25.7522 68.8731 25.3202 68.8731 24.8402C68.8731 24.3816 68.9798 23.9656 69.1931 23.5922C69.4171 23.2189 69.7745 22.9202 70.2651 22.6962C70.7665 22.4722 71.4385 22.3602 72.2811 22.3602H74.9691V23.4642H72.3451C71.5771 23.4642 71.0598 23.5922 70.7931 23.8482C70.5265 24.1042 70.3931 24.4136 70.3931 24.7762C70.3931 25.1922 70.5585 25.5282 70.8891 25.7842C71.2198 26.0296 71.6785 26.1522 72.2651 26.1522C72.8411 26.1522 73.3425 26.0242 73.7691 25.7682C74.2065 25.5122 74.5211 25.1389 74.7131 24.6482L75.0171 25.7042C74.8145 26.2056 74.4571 26.6056 73.9451 26.9042C73.4331 27.1922 72.7878 27.3362 72.0091 27.3362ZM86.8925 27.3362C86.0712 27.3362 85.3352 27.1549 84.6845 26.7922C84.0445 26.4296 83.5378 25.9229 83.1645 25.2722C82.7912 24.6216 82.6045 23.8642 82.6045 23.0002C82.6045 22.1362 82.7912 21.3842 83.1645 20.7442C83.5378 20.0936 84.0445 19.5869 84.6845 19.2242C85.3352 18.8616 86.0712 18.6802 86.8925 18.6802C87.6072 18.6802 88.2525 18.8402 88.8285 19.1602C89.4045 19.4802 89.8632 19.9602 90.2045 20.6002C90.5565 21.2402 90.7325 22.0402 90.7325 23.0002C90.7325 23.9602 90.5618 24.7602 90.2205 25.4002C89.8898 26.0402 89.4365 26.5256 88.8605 26.8562C88.2845 27.1762 87.6285 27.3362 86.8925 27.3362ZM87.0205 25.9922C87.5538 25.9922 88.0338 25.8696 88.4605 25.6242C88.8978 25.3789 89.2392 25.0322 89.4845 24.5842C89.7405 24.1256 89.8685 23.5976 89.8685 23.0002C89.8685 22.3922 89.7405 21.8696 89.4845 21.4322C89.2392 20.9842 88.8978 20.6376 88.4605 20.3922C88.0338 20.1469 87.5538 20.0242 87.0205 20.0242C86.4765 20.0242 85.9912 20.1469 85.5645 20.3922C85.1378 20.6376 84.7965 20.9842 84.5405 21.4322C84.2845 21.8696 84.1565 22.3922 84.1565 23.0002C84.1565 23.5976 84.2845 24.1256 84.5405 24.5842C84.7965 25.0322 85.1378 25.3789 85.5645 25.6242C85.9912 25.8696 86.4765 25.9922 87.0205 25.9922ZM89.9165 27.2402V24.9522L90.0125 22.9842L89.8525 21.0162V15.3682H91.3885V27.2402H89.9165ZM98.0707 27.3362C97.1641 27.3362 96.3641 27.1496 95.6707 26.7762C94.9881 26.4029 94.4547 25.8909 94.0707 25.2402C93.6974 24.5896 93.5107 23.8429 93.5107 23.0002C93.5107 22.1576 93.6921 21.4109 94.0547 20.7602C94.4281 20.1096 94.9347 19.6029 95.5747 19.2402C96.2254 18.8669 96.9561 18.6802 97.7667 18.6802C98.5881 18.6802 99.3134 18.8616 99.9427 19.2242C100.572 19.5869 101.063 20.0989 101.415 20.7602C101.777 21.4109 101.959 22.1736 101.959 23.0482C101.959 23.1122 101.953 23.1869 101.943 23.2722C101.943 23.3576 101.937 23.4376 101.927 23.5122H94.7107V22.4082H101.127L100.503 22.7922C100.513 22.2482 100.401 21.7629 100.167 21.3362C99.9321 20.9096 99.6067 20.5789 99.1907 20.3442C98.7854 20.0989 98.3107 19.9762 97.7667 19.9762C97.2334 19.9762 96.7587 20.0989 96.3427 20.3442C95.9267 20.5789 95.6014 20.9149 95.3667 21.3522C95.1321 21.7789 95.0147 22.2696 95.0147 22.8242V23.0802C95.0147 23.6456 95.1427 24.1522 95.3987 24.6002C95.6654 25.0376 96.0334 25.3789 96.5027 25.6242C96.9721 25.8696 97.5107 25.9922 98.1187 25.9922C98.6201 25.9922 99.0734 25.9069 99.4787 25.7362C99.8947 25.5656 100.257 25.3096 100.567 24.9682L101.415 25.9602C101.031 26.4082 100.551 26.7496 99.9747 26.9842C99.4094 27.2189 98.7747 27.3362 98.0707 27.3362ZM114.7 18.6802C115.382 18.6802 115.985 18.8136 116.508 19.0802C117.03 19.3469 117.436 19.7522 117.724 20.2962C118.022 20.8402 118.172 21.5282 118.172 22.3602V27.2402H116.636V22.5362C116.636 21.7149 116.444 21.0962 116.06 20.6802C115.676 20.2642 115.137 20.0562 114.444 20.0562C113.932 20.0562 113.484 20.1629 113.1 20.3762C112.716 20.5896 112.417 20.9042 112.204 21.3202C112.001 21.7362 111.9 22.2536 111.9 22.8722V27.2402H110.364V22.5362C110.364 21.7149 110.172 21.0962 109.788 20.6802C109.414 20.2642 108.876 20.0562 108.172 20.0562C107.67 20.0562 107.228 20.1629 106.844 20.3762C106.46 20.5896 106.161 20.9042 105.948 21.3202C105.734 21.7362 105.628 22.2536 105.628 22.8722V27.2402H104.092V18.7602H105.564V21.0162L105.324 20.4402C105.59 19.8856 106.001 19.4536 106.556 19.1442C107.11 18.8349 107.756 18.6802 108.492 18.6802C109.302 18.6802 110.001 18.8829 110.588 19.2882C111.174 19.6829 111.558 20.2856 111.74 21.0962L111.116 20.8402C111.372 20.1896 111.82 19.6669 112.46 19.2722C113.1 18.8776 113.846 18.6802 114.7 18.6802ZM124.63 27.3362C123.777 27.3362 123.019 27.1496 122.358 26.7762C121.697 26.4029 121.174 25.8909 120.79 25.2402C120.406 24.5789 120.214 23.8322 120.214 23.0002C120.214 22.1576 120.406 21.4109 120.79 20.7602C121.174 20.1096 121.697 19.6029 122.358 19.2402C123.019 18.8669 123.777 18.6802 124.63 18.6802C125.473 18.6802 126.225 18.8669 126.886 19.2402C127.558 19.6029 128.081 20.1096 128.454 20.7602C128.838 21.4002 129.03 22.1469 129.03 23.0002C129.03 23.8429 128.838 24.5896 128.454 25.2402C128.081 25.8909 127.558 26.4029 126.886 26.7762C126.225 27.1496 125.473 27.3362 124.63 27.3362ZM124.63 25.9922C125.174 25.9922 125.659 25.8696 126.086 25.6242C126.523 25.3789 126.865 25.0322 127.11 24.5842C127.355 24.1256 127.478 23.5976 127.478 23.0002C127.478 22.3922 127.355 21.8696 127.11 21.4322C126.865 20.9842 126.523 20.6376 126.086 20.3922C125.659 20.1469 125.174 20.0242 124.63 20.0242C124.086 20.0242 123.601 20.1469 123.174 20.3922C122.747 20.6376 122.406 20.9842 122.15 21.4322C121.894 21.8696 121.766 22.3922 121.766 23.0002C121.766 23.5976 121.894 24.1256 122.15 24.5842C122.406 25.0322 122.747 25.3789 123.174 25.6242C123.601 25.8696 124.086 25.9922 124.63 25.9922Z" fill="black"/>
<g clip-path="url(#clip0_843_1250)">
<g clip-path="url(#clip1_843_1250)">
<mask id="mask0_843_1250" style="mask-type:luminance" maskUnits="userSpaceOnUse" x="138" y="14" width="17" height="17">
<path d="M154.495 14.2402H138.495V30.2402H154.495V14.2402Z" fill="white"/>
</mask>
<g mask="url(#mask0_843_1250)">
<path d="M144.495 17.2402L149.495 22.2402L144.495 27.2402" stroke="black" stroke-linecap="round" stroke-linejoin="round"/>
</g>
</g>
</g>
<defs>
<clipPath id="clip0_843_1250">
<rect width="16" height="17" fill="white" transform="translate(138.495 13.7402)"/>
</clipPath>
<clipPath id="clip1_843_1250">
<rect width="16" height="17" fill="white" transform="translate(138.495 13.7402)"/>
</clipPath>
</defs>
</svg>
