<svg width="165" height="44" viewBox="0 0 165 44" fill="none" xmlns="http://www.w3.org/2000/svg">
<rect width="165" height="44" rx="22" fill="#FFBE0D"/>
<path d="M27.688 27.128C26.8347 27.128 26.0453 26.9893 25.32 26.712C24.6053 26.424 23.9813 26.024 23.448 25.512C22.9253 24.9893 22.5147 24.3813 22.216 23.688C21.9173 22.9947 21.768 22.232 21.768 21.4C21.768 20.568 21.9173 19.8053 22.216 19.112C22.5147 18.4187 22.9307 17.816 23.464 17.304C23.9973 16.7813 24.6213 16.3813 25.336 16.104C26.0613 15.816 26.8507 15.672 27.704 15.672C28.568 15.672 29.3627 15.8213 30.088 16.12C30.824 16.408 31.448 16.84 31.96 17.416L30.92 18.424C30.4933 17.976 30.0133 17.6453 29.48 17.432C28.9467 17.208 28.376 17.096 27.768 17.096C27.1387 17.096 26.552 17.2027 26.008 17.416C25.4747 17.6293 25.0107 17.928 24.616 18.312C24.2213 18.696 23.912 19.1547 23.688 19.688C23.4747 20.2107 23.368 20.7813 23.368 21.4C23.368 22.0187 23.4747 22.5947 23.688 23.128C23.912 23.6507 24.2213 24.104 24.616 24.488C25.0107 24.872 25.4747 25.1707 26.008 25.384C26.552 25.5973 27.1387 25.704 27.768 25.704C28.376 25.704 28.9467 25.5973 29.48 25.384C30.0133 25.16 30.4933 24.8187 30.92 24.36L31.96 25.368C31.448 25.944 30.824 26.3813 30.088 26.68C29.3627 26.9787 28.5627 27.128 27.688 27.128ZM37.2911 27.096C36.4378 27.096 35.6805 26.9093 35.0191 26.536C34.3578 26.1627 33.8351 25.6507 33.4511 25C33.0671 24.3387 32.8751 23.592 32.8751 22.76C32.8751 21.9173 33.0671 21.1707 33.4511 20.52C33.8351 19.8693 34.3578 19.3627 35.0191 19C35.6805 18.6267 36.4378 18.44 37.2911 18.44C38.1338 18.44 38.8858 18.6267 39.5471 19C40.2191 19.3627 40.7418 19.8693 41.1151 20.52C41.4991 21.16 41.6911 21.9067 41.6911 22.76C41.6911 23.6027 41.4991 24.3493 41.1151 25C40.7418 25.6507 40.2191 26.1627 39.5471 26.536C38.8858 26.9093 38.1338 27.096 37.2911 27.096ZM37.2911 25.752C37.8351 25.752 38.3205 25.6293 38.7471 25.384C39.1845 25.1387 39.5258 24.792 39.7711 24.344C40.0165 23.8853 40.1391 23.3573 40.1391 22.76C40.1391 22.152 40.0165 21.6293 39.7711 21.192C39.5258 20.744 39.1845 20.3973 38.7471 20.152C38.3205 19.9067 37.8351 19.784 37.2911 19.784C36.7471 19.784 36.2618 19.9067 35.8351 20.152C35.4085 20.3973 35.0671 20.744 34.8111 21.192C34.5551 21.6293 34.4271 22.152 34.4271 22.76C34.4271 23.3573 34.5551 23.8853 34.8111 24.344C35.0671 24.792 35.4085 25.1387 35.8351 25.384C36.2618 25.6293 36.7471 25.752 37.2911 25.752ZM48.3434 18.44C49.0367 18.44 49.6447 18.5733 50.1674 18.84C50.7007 19.1067 51.1167 19.512 51.4154 20.056C51.714 20.6 51.8634 21.288 51.8634 22.12V27H50.3274V22.296C50.3274 21.4747 50.1247 20.856 49.7194 20.44C49.3247 20.024 48.7647 19.816 48.0394 19.816C47.4954 19.816 47.0207 19.9227 46.6154 20.136C46.21 20.3493 45.8954 20.664 45.6714 21.08C45.458 21.496 45.3514 22.0133 45.3514 22.632V27H43.8154V18.52H45.2874V20.808L45.0474 20.2C45.3247 19.6453 45.7514 19.2133 46.3274 18.904C46.9034 18.5947 47.5754 18.44 48.3434 18.44ZM59.234 18.44C59.9273 18.44 60.5353 18.5733 61.058 18.84C61.5913 19.1067 62.0073 19.512 62.306 20.056C62.6047 20.6 62.754 21.288 62.754 22.12V27H61.218V22.296C61.218 21.4747 61.0153 20.856 60.61 20.44C60.2153 20.024 59.6553 19.816 58.93 19.816C58.386 19.816 57.9113 19.9227 57.506 20.136C57.1007 20.3493 56.786 20.664 56.562 21.08C56.3487 21.496 56.242 22.0133 56.242 22.632V27H54.706V18.52H56.178V20.808L55.938 20.2C56.2153 19.6453 56.642 19.2133 57.218 18.904C57.794 18.5947 58.466 18.44 59.234 18.44ZM69.3726 27.096C68.466 27.096 67.666 26.9093 66.9726 26.536C66.29 26.1627 65.7566 25.6507 65.3726 25C64.9993 24.3493 64.8126 23.6027 64.8126 22.76C64.8126 21.9173 64.994 21.1707 65.3566 20.52C65.73 19.8693 66.2366 19.3627 66.8766 19C67.5273 18.6267 68.258 18.44 69.0686 18.44C69.89 18.44 70.6153 18.6213 71.2446 18.984C71.874 19.3467 72.3646 19.8587 72.7166 20.52C73.0793 21.1707 73.2606 21.9333 73.2606 22.808C73.2606 22.872 73.2553 22.9467 73.2446 23.032C73.2446 23.1173 73.2393 23.1973 73.2286 23.272H66.0126V22.168H72.4286L71.8046 22.552C71.8153 22.008 71.7033 21.5227 71.4686 21.096C71.234 20.6693 70.9086 20.3387 70.4926 20.104C70.0873 19.8587 69.6126 19.736 69.0686 19.736C68.5353 19.736 68.0606 19.8587 67.6446 20.104C67.2286 20.3387 66.9033 20.6747 66.6686 21.112C66.434 21.5387 66.3166 22.0293 66.3166 22.584V22.84C66.3166 23.4053 66.4446 23.912 66.7006 24.36C66.9673 24.7973 67.3353 25.1387 67.8046 25.384C68.274 25.6293 68.8126 25.752 69.4206 25.752C69.922 25.752 70.3753 25.6667 70.7806 25.496C71.1966 25.3253 71.5593 25.0693 71.8686 24.728L72.7166 25.72C72.3326 26.168 71.8526 26.5093 71.2766 26.744C70.7113 26.9787 70.0766 27.096 69.3726 27.096ZM79.0895 27.096C78.2255 27.096 77.4522 26.9093 76.7695 26.536C76.0975 26.1627 75.5695 25.6507 75.1855 25C74.8015 24.3493 74.6095 23.6027 74.6095 22.76C74.6095 21.9173 74.8015 21.1707 75.1855 20.52C75.5695 19.8693 76.0975 19.3627 76.7695 19C77.4522 18.6267 78.2255 18.44 79.0895 18.44C79.8575 18.44 80.5402 18.5947 81.1375 18.904C81.7455 19.2027 82.2148 19.6507 82.5455 20.248L81.3775 21C81.1002 20.584 80.7588 20.28 80.3535 20.088C79.9588 19.8853 79.5322 19.784 79.0735 19.784C78.5188 19.784 78.0228 19.9067 77.5855 20.152C77.1482 20.3973 76.8015 20.744 76.5455 21.192C76.2895 21.6293 76.1615 22.152 76.1615 22.76C76.1615 23.368 76.2895 23.896 76.5455 24.344C76.8015 24.792 77.1482 25.1387 77.5855 25.384C78.0228 25.6293 78.5188 25.752 79.0735 25.752C79.5322 25.752 79.9588 25.656 80.3535 25.464C80.7588 25.2613 81.1002 24.952 81.3775 24.536L82.5455 25.272C82.2148 25.8587 81.7455 26.312 81.1375 26.632C80.5402 26.9413 79.8575 27.096 79.0895 27.096ZM87.5555 27.096C86.7022 27.096 86.0408 26.8667 85.5715 26.408C85.1022 25.9493 84.8675 25.2933 84.8675 24.44V16.664H86.4035V24.376C86.4035 24.8347 86.5155 25.1867 86.7395 25.432C86.9742 25.6773 87.3048 25.8 87.7315 25.8C88.2115 25.8 88.6115 25.6667 88.9315 25.4L89.4115 26.504C89.1768 26.7067 88.8942 26.856 88.5635 26.952C88.2435 27.048 87.9075 27.096 87.5555 27.096ZM83.4275 19.784V18.52H88.8355V19.784H83.4275ZM95.0214 23.272V21.944H99.3254V23.272H95.0214ZM105.258 27.096C104.533 27.096 103.893 26.9627 103.338 26.696C102.794 26.4293 102.368 26.024 102.058 25.48C101.76 24.9253 101.61 24.232 101.61 23.4V18.52H103.146V23.224C103.146 24.056 103.344 24.68 103.738 25.096C104.144 25.512 104.709 25.72 105.434 25.72C105.968 25.72 106.432 25.6133 106.826 25.4C107.221 25.176 107.525 24.856 107.738 24.44C107.952 24.0133 108.058 23.5013 108.058 22.904V18.52H109.594V27H108.138V24.712L108.378 25.32C108.101 25.8853 107.685 26.3227 107.13 26.632C106.576 26.9413 105.952 27.096 105.258 27.096ZM114.951 27.096C114.247 27.096 113.575 27 112.935 26.808C112.305 26.616 111.809 26.3813 111.447 26.104L112.087 24.888C112.449 25.1333 112.897 25.3413 113.431 25.512C113.964 25.6827 114.508 25.768 115.062 25.768C115.777 25.768 116.289 25.6667 116.599 25.464C116.919 25.2613 117.079 24.9787 117.079 24.616C117.079 24.3493 116.983 24.1413 116.791 23.992C116.599 23.8427 116.343 23.7307 116.023 23.656C115.713 23.5813 115.367 23.5173 114.983 23.464C114.599 23.4 114.215 23.3253 113.831 23.24C113.447 23.144 113.095 23.016 112.775 22.856C112.455 22.6853 112.199 22.456 112.007 22.168C111.815 21.8693 111.719 21.4747 111.719 20.984C111.719 20.472 111.863 20.024 112.151 19.64C112.439 19.256 112.844 18.9627 113.367 18.76C113.9 18.5467 114.529 18.44 115.255 18.44C115.809 18.44 116.369 18.5093 116.935 18.648C117.511 18.776 117.98 18.9627 118.343 19.208L117.687 20.424C117.303 20.168 116.903 19.992 116.487 19.896C116.071 19.8 115.655 19.752 115.239 19.752C114.567 19.752 114.065 19.864 113.735 20.088C113.404 20.3013 113.239 20.5787 113.239 20.92C113.239 21.208 113.335 21.432 113.527 21.592C113.729 21.7413 113.985 21.8587 114.295 21.944C114.615 22.0293 114.967 22.104 115.351 22.168C115.735 22.2213 116.119 22.296 116.503 22.392C116.887 22.4773 117.233 22.6 117.543 22.76C117.863 22.92 118.119 23.144 118.311 23.432C118.513 23.72 118.615 24.104 118.615 24.584C118.615 25.096 118.465 25.5387 118.167 25.912C117.868 26.2853 117.447 26.5787 116.903 26.792C116.359 26.9947 115.708 27.096 114.951 27.096Z" fill="black"/>
<g clip-path="url(#clip0_856_71)">
<g clip-path="url(#clip1_856_71)">
<mask id="mask0_856_71" style="mask-type:luminance" maskUnits="userSpaceOnUse" x="128" y="14" width="16" height="16">
<path d="M144 14H128V30H144V14Z" fill="white"/>
</mask>
<g mask="url(#mask0_856_71)">
<path d="M134 17L139 22L134 27" stroke="black" stroke-linecap="round" stroke-linejoin="round"/>
</g>
</g>
</g>
<defs>
<clipPath id="clip0_856_71">
<rect width="16" height="17" fill="white" transform="translate(128 13.5)"/>
</clipPath>
<clipPath id="clip1_856_71">
<rect width="16" height="17" fill="white" transform="translate(128 13.5)"/>
</clipPath>
</defs>
</svg>
