<svg width="135" height="61" viewBox="0 0 135 61" fill="none" xmlns="http://www.w3.org/2000/svg">
<rect x="0.5" y="0.5" width="134" height="42" rx="21" fill="#171802"/>
<rect x="0.5" y="0.5" width="134" height="42" rx="21" stroke="#363804"/>
<path d="M27.1888 16.2H28.2108V26H27.1888V16.2ZM21.0568 26H20.0208V16.2H21.0568V26ZM27.2868 21.478H20.9448V20.568H27.2868V21.478ZM34.1955 26.07C33.4861 26.07 32.8468 25.9113 32.2775 25.594C31.7175 25.2673 31.2741 24.824 30.9475 24.264C30.6208 23.6947 30.4575 23.046 30.4575 22.318C30.4575 21.5807 30.6208 20.932 30.9475 20.372C31.2741 19.812 31.7175 19.3733 32.2775 19.056C32.8375 18.7387 33.4768 18.58 34.1955 18.58C34.9235 18.58 35.5675 18.7387 36.1275 19.056C36.6968 19.3733 37.1401 19.812 37.4575 20.372C37.7841 20.932 37.9475 21.5807 37.9475 22.318C37.9475 23.046 37.7841 23.6947 37.4575 24.264C37.1401 24.824 36.6968 25.2673 36.1275 25.594C35.5581 25.9113 34.9141 26.07 34.1955 26.07ZM34.1955 25.188C34.7275 25.188 35.1988 25.0713 35.6095 24.838C36.0201 24.5953 36.3421 24.2593 36.5755 23.83C36.8181 23.3913 36.9395 22.8873 36.9395 22.318C36.9395 21.7393 36.8181 21.2353 36.5755 20.806C36.3421 20.3767 36.0201 20.0453 35.6095 19.812C35.1988 19.5693 34.7321 19.448 34.2095 19.448C33.6868 19.448 33.2201 19.5693 32.8095 19.812C32.3988 20.0453 32.0721 20.3767 31.8295 20.806C31.5868 21.2353 31.4655 21.7393 31.4655 22.318C31.4655 22.8873 31.5868 23.3913 31.8295 23.83C32.0721 24.2593 32.3988 24.5953 32.8095 24.838C33.2201 25.0713 33.6821 25.188 34.1955 25.188ZM41.2697 26L38.4977 18.65H39.4497L41.9697 25.468H41.5357L44.1257 18.65H44.9797L47.5417 25.468H47.1077L49.6697 18.65H50.5797L47.7937 26H46.8557L44.3917 19.588H44.6857L42.2077 26H41.2697ZM55.7405 26V18.65H56.7345V26H55.7405ZM56.2445 17.026C56.0392 17.026 55.8665 16.956 55.7265 16.816C55.5865 16.676 55.5165 16.508 55.5165 16.312C55.5165 16.116 55.5865 15.9527 55.7265 15.822C55.8665 15.682 56.0392 15.612 56.2445 15.612C56.4498 15.612 56.6225 15.6773 56.7625 15.808C56.9025 15.9387 56.9725 16.102 56.9725 16.298C56.9725 16.5033 56.9025 16.676 56.7625 16.816C56.6318 16.956 56.4592 17.026 56.2445 17.026ZM61.8243 26.07C61.1336 26.07 60.6016 25.8833 60.2283 25.51C59.8549 25.1367 59.6683 24.6093 59.6683 23.928V17.026H60.6623V23.872C60.6623 24.3013 60.7696 24.6327 60.9843 24.866C61.2083 25.0993 61.5256 25.216 61.9363 25.216C62.3749 25.216 62.7389 25.09 63.0283 24.838L63.3783 25.552C63.1823 25.7293 62.9443 25.86 62.6643 25.944C62.3936 26.028 62.1136 26.07 61.8243 26.07ZM58.3523 19.476V18.65H62.9023V19.476H58.3523ZM70.3498 26L67.5778 18.65H68.5298L71.0498 25.468H70.6158L73.2058 18.65H74.0598L76.6218 25.468H76.1878L78.7498 18.65H79.6598L76.8738 26H75.9358L73.4718 19.588H73.7658L71.2878 26H70.3498ZM83.9474 26.07C83.2381 26.07 82.5988 25.9113 82.0294 25.594C81.4694 25.2673 81.0261 24.824 80.6994 24.264C80.3728 23.6947 80.2094 23.046 80.2094 22.318C80.2094 21.5807 80.3728 20.932 80.6994 20.372C81.0261 19.812 81.4694 19.3733 82.0294 19.056C82.5894 18.7387 83.2288 18.58 83.9474 18.58C84.6754 18.58 85.3194 18.7387 85.8794 19.056C86.4488 19.3733 86.8921 19.812 87.2094 20.372C87.5361 20.932 87.6994 21.5807 87.6994 22.318C87.6994 23.046 87.5361 23.6947 87.2094 24.264C86.8921 24.824 86.4488 25.2673 85.8794 25.594C85.3101 25.9113 84.6661 26.07 83.9474 26.07ZM83.9474 25.188C84.4794 25.188 84.9508 25.0713 85.3614 24.838C85.7721 24.5953 86.0941 24.2593 86.3274 23.83C86.5701 23.3913 86.6914 22.8873 86.6914 22.318C86.6914 21.7393 86.5701 21.2353 86.3274 20.806C86.0941 20.3767 85.7721 20.0453 85.3614 19.812C84.9508 19.5693 84.4841 19.448 83.9614 19.448C83.4388 19.448 82.9721 19.5693 82.5614 19.812C82.1508 20.0453 81.8241 20.3767 81.5814 20.806C81.3388 21.2353 81.2174 21.7393 81.2174 22.318C81.2174 22.8873 81.3388 23.3913 81.5814 23.83C81.8241 24.2593 82.1508 24.5953 82.5614 24.838C82.9721 25.0713 83.4341 25.188 83.9474 25.188ZM89.7288 26V18.65H90.6808V20.652L90.5828 20.302C90.7881 19.742 91.1334 19.3173 91.6188 19.028C92.1041 18.7293 92.7061 18.58 93.4248 18.58V19.546C93.3874 19.546 93.3501 19.546 93.3128 19.546C93.2754 19.5367 93.2381 19.532 93.2008 19.532C92.4261 19.532 91.8194 19.77 91.3808 20.246C90.9421 20.7127 90.7228 21.38 90.7228 22.248V26H89.7288ZM96.0225 24.096L96.0505 22.822L100.629 18.65H101.847L98.6125 21.744L98.0525 22.22L96.0225 24.096ZM95.2385 26V15.612H96.2325V26H95.2385ZM100.937 26L97.8705 22.178L98.5145 21.408L102.155 26H100.937ZM105.402 26.07C104.795 26.07 104.221 25.986 103.68 25.818C103.139 25.6407 102.714 25.4213 102.406 25.16L102.854 24.376C103.153 24.6 103.535 24.796 104.002 24.964C104.469 25.1227 104.959 25.202 105.472 25.202C106.172 25.202 106.676 25.0947 106.984 24.88C107.292 24.656 107.446 24.362 107.446 23.998C107.446 23.7273 107.357 23.5173 107.18 23.368C107.012 23.2093 106.788 23.0927 106.508 23.018C106.228 22.934 105.915 22.864 105.57 22.808C105.225 22.752 104.879 22.6867 104.534 22.612C104.198 22.5373 103.89 22.43 103.61 22.29C103.33 22.1407 103.101 21.94 102.924 21.688C102.756 21.436 102.672 21.1 102.672 20.68C102.672 20.2787 102.784 19.9193 103.008 19.602C103.232 19.2847 103.559 19.0373 103.988 18.86C104.427 18.6733 104.959 18.58 105.584 18.58C106.06 18.58 106.536 18.6453 107.012 18.776C107.488 18.8973 107.88 19.0607 108.188 19.266L107.754 20.064C107.427 19.84 107.077 19.6813 106.704 19.588C106.331 19.4853 105.957 19.434 105.584 19.434C104.921 19.434 104.431 19.5507 104.114 19.784C103.806 20.008 103.652 20.2973 103.652 20.652C103.652 20.932 103.736 21.1513 103.904 21.31C104.081 21.4687 104.31 21.5947 104.59 21.688C104.879 21.772 105.192 21.842 105.528 21.898C105.873 21.954 106.214 22.024 106.55 22.108C106.895 22.1827 107.208 22.29 107.488 22.43C107.777 22.5607 108.006 22.752 108.174 23.004C108.351 23.2467 108.44 23.5687 108.44 23.97C108.44 24.3993 108.319 24.7727 108.076 25.09C107.843 25.398 107.497 25.6407 107.04 25.818C106.592 25.986 106.046 26.07 105.402 26.07ZM111.922 23.06C111.922 22.668 111.983 22.332 112.104 22.052C112.235 21.772 112.393 21.5247 112.58 21.31C112.776 21.0953 112.981 20.8947 113.196 20.708C113.42 20.5213 113.63 20.3347 113.826 20.148C114.022 19.952 114.181 19.742 114.302 19.518C114.423 19.2847 114.484 19.014 114.484 18.706C114.484 18.202 114.288 17.7913 113.896 17.474C113.504 17.1567 112.949 16.998 112.23 16.998C111.633 16.998 111.115 17.096 110.676 17.292C110.237 17.4787 109.864 17.7587 109.556 18.132L108.814 17.572C109.187 17.1053 109.668 16.746 110.256 16.494C110.844 16.242 111.525 16.116 112.3 16.116C112.953 16.116 113.518 16.214 113.994 16.41C114.479 16.606 114.853 16.886 115.114 17.25C115.385 17.614 115.52 18.048 115.52 18.552C115.52 18.9533 115.455 19.2987 115.324 19.588C115.203 19.868 115.044 20.12 114.848 20.344C114.661 20.5587 114.456 20.764 114.232 20.96C114.017 21.1467 113.812 21.338 113.616 21.534C113.42 21.73 113.261 21.9493 113.14 22.192C113.019 22.4347 112.958 22.724 112.958 23.06H111.922ZM112.44 26.07C112.244 26.07 112.071 26 111.922 25.86C111.782 25.7107 111.712 25.538 111.712 25.342C111.712 25.1367 111.782 24.9687 111.922 24.838C112.071 24.698 112.244 24.628 112.44 24.628C112.655 24.628 112.832 24.698 112.972 24.838C113.112 24.9687 113.182 25.1367 113.182 25.342C113.182 25.538 113.112 25.7107 112.972 25.86C112.832 26 112.655 26.07 112.44 26.07Z" fill="#FFBE0D"/>
</svg>
