<svg width="124" height="62" viewBox="0 0 124 62" fill="none" xmlns="http://www.w3.org/2000/svg">
<rect x="0.505005" y="0.589844" width="123" height="42" rx="21" fill="#171802"/>
<rect x="0.505005" y="0.589844" width="123" height="42" rx="21" stroke="#363804"/>
<path d="M21.6525 26.0898V17.1858H18.2085V16.2898H26.1325V17.1858H22.6885V26.0898H21.6525ZM29.9339 26.1598C29.1686 26.1598 28.4966 26.0012 27.9179 25.6838C27.3392 25.3572 26.8866 24.9138 26.5599 24.3538C26.2332 23.7845 26.0699 23.1358 26.0699 22.4078C26.0699 21.6798 26.2239 21.0358 26.5319 20.4758C26.8492 19.9158 27.2786 19.4772 27.8199 19.1598C28.3706 18.8332 28.9866 18.6698 29.6679 18.6698C30.3586 18.6698 30.9699 18.8285 31.5019 19.1458C32.0432 19.4538 32.4679 19.8925 32.7759 20.4618C33.0839 21.0218 33.2379 21.6705 33.2379 22.4078C33.2379 22.4545 33.2332 22.5058 33.2239 22.5618C33.2239 22.6085 33.2239 22.6598 33.2239 22.7158H26.8259V21.9738H32.6919L32.2999 22.2678C32.2999 21.7358 32.1832 21.2645 31.9499 20.8538C31.7259 20.4338 31.4179 20.1072 31.0259 19.8738C30.6339 19.6405 30.1812 19.5238 29.6679 19.5238C29.1639 19.5238 28.7112 19.6405 28.3099 19.8738C27.9086 20.1072 27.5959 20.4338 27.3719 20.8538C27.1479 21.2738 27.0359 21.7545 27.0359 22.2958V22.4498C27.0359 23.0098 27.1572 23.5045 27.3999 23.9338C27.6519 24.3538 27.9972 24.6852 28.4359 24.9278C28.8839 25.1612 29.3926 25.2778 29.9619 25.2778C30.4099 25.2778 30.8252 25.1985 31.2079 25.0398C31.5999 24.8812 31.9359 24.6385 32.2159 24.3118L32.7759 24.9558C32.4492 25.3478 32.0386 25.6465 31.5439 25.8518C31.0586 26.0572 30.5219 26.1598 29.9339 26.1598ZM37.2351 26.1598C36.6285 26.1598 36.0545 26.0758 35.5131 25.9078C34.9718 25.7305 34.5471 25.5112 34.2391 25.2498L34.6871 24.4658C34.9858 24.6898 35.3685 24.8858 35.8351 25.0538C36.3018 25.2125 36.7918 25.2918 37.3051 25.2918C38.0051 25.2918 38.5091 25.1845 38.8171 24.9698C39.1251 24.7458 39.2791 24.4518 39.2791 24.0878C39.2791 23.8172 39.1905 23.6072 39.0131 23.4578C38.8451 23.2992 38.6211 23.1825 38.3411 23.1078C38.0611 23.0238 37.7485 22.9538 37.4031 22.8978C37.0578 22.8418 36.7125 22.7765 36.3671 22.7018C36.0311 22.6272 35.7231 22.5198 35.4431 22.3798C35.1631 22.2305 34.9345 22.0298 34.7571 21.7778C34.5891 21.5258 34.5051 21.1898 34.5051 20.7698C34.5051 20.3685 34.6171 20.0092 34.8411 19.6918C35.0651 19.3745 35.3918 19.1272 35.8211 18.9498C36.2598 18.7632 36.7918 18.6698 37.4171 18.6698C37.8931 18.6698 38.3691 18.7352 38.8451 18.8658C39.3211 18.9872 39.7131 19.1505 40.0211 19.3558L39.5871 20.1538C39.2605 19.9298 38.9105 19.7712 38.5371 19.6778C38.1638 19.5752 37.7905 19.5238 37.4171 19.5238C36.7545 19.5238 36.2645 19.6405 35.9471 19.8738C35.6391 20.0978 35.4851 20.3872 35.4851 20.7418C35.4851 21.0218 35.5691 21.2412 35.7371 21.3998C35.9145 21.5585 36.1431 21.6845 36.4231 21.7778C36.7125 21.8618 37.0251 21.9318 37.3611 21.9878C37.7065 22.0438 38.0471 22.1138 38.3831 22.1978C38.7285 22.2725 39.0411 22.3798 39.3211 22.5198C39.6105 22.6505 39.8391 22.8418 40.0071 23.0938C40.1845 23.3365 40.2731 23.6585 40.2731 24.0598C40.2731 24.4892 40.1518 24.8625 39.9091 25.1798C39.6758 25.4878 39.3305 25.7305 38.8731 25.9078C38.4251 26.0758 37.8791 26.1598 37.2351 26.1598ZM44.4211 26.1598C43.7304 26.1598 43.1984 25.9732 42.8251 25.5998C42.4517 25.2265 42.2651 24.6992 42.2651 24.0178V17.1158H43.2591V23.9618C43.2591 24.3912 43.3664 24.7225 43.5811 24.9558C43.8051 25.1892 44.1224 25.3058 44.5331 25.3058C44.9717 25.3058 45.3357 25.1798 45.6251 24.9278L45.9751 25.6418C45.7791 25.8192 45.5411 25.9498 45.2611 26.0338C44.9904 26.1178 44.7104 26.1598 44.4211 26.1598ZM40.9491 19.5658V18.7398H45.4991V19.5658H40.9491ZM47.7846 26.0898V18.7398H48.7786V26.0898H47.7846ZM48.2886 17.1158C48.0832 17.1158 47.9106 17.0458 47.7706 16.9058C47.6306 16.7658 47.5606 16.5978 47.5606 16.4018C47.5606 16.2058 47.6306 16.0425 47.7706 15.9118C47.9106 15.7718 48.0832 15.7018 48.2886 15.7018C48.4939 15.7018 48.6666 15.7672 48.8066 15.8978C48.9466 16.0285 49.0166 16.1918 49.0166 16.3878C49.0166 16.5932 48.9466 16.7658 48.8066 16.9058C48.6759 17.0458 48.5032 17.1158 48.2886 17.1158ZM60.7283 18.6698C61.3257 18.6698 61.8437 18.7865 62.2823 19.0198C62.7303 19.2438 63.0757 19.5892 63.3183 20.0558C63.5703 20.5225 63.6963 21.1105 63.6963 21.8198V26.0898H62.7023V21.9178C62.7023 21.1432 62.5157 20.5598 62.1423 20.1678C61.7783 19.7665 61.2603 19.5658 60.5883 19.5658C60.0843 19.5658 59.6457 19.6732 59.2723 19.8878C58.9083 20.0932 58.6237 20.3965 58.4183 20.7978C58.2223 21.1898 58.1243 21.6658 58.1243 22.2258V26.0898H57.1303V21.9178C57.1303 21.1432 56.9437 20.5598 56.5703 20.1678C56.197 19.7665 55.6743 19.5658 55.0023 19.5658C54.5077 19.5658 54.0737 19.6732 53.7003 19.8878C53.327 20.0932 53.0377 20.3965 52.8323 20.7978C52.6363 21.1898 52.5383 21.6658 52.5383 22.2258V26.0898H51.5443V18.7398H52.4963V20.7278L52.3423 20.3778C52.5663 19.8458 52.9257 19.4305 53.4203 19.1318C53.9243 18.8238 54.517 18.6698 55.1983 18.6698C55.917 18.6698 56.5283 18.8518 57.0323 19.2158C57.5363 19.5705 57.863 20.1072 58.0123 20.8258L57.6203 20.6718C57.835 20.0745 58.213 19.5938 58.7543 19.2298C59.305 18.8565 59.963 18.6698 60.7283 18.6698ZM69.388 26.1598C68.6786 26.1598 68.0393 26.0012 67.47 25.6838C66.91 25.3572 66.4666 24.9138 66.14 24.3538C65.8133 23.7845 65.65 23.1358 65.65 22.4078C65.65 21.6705 65.8133 21.0218 66.14 20.4618C66.4666 19.9018 66.91 19.4632 67.47 19.1458C68.03 18.8285 68.6693 18.6698 69.388 18.6698C70.116 18.6698 70.76 18.8285 71.32 19.1458C71.8893 19.4632 72.3326 19.9018 72.65 20.4618C72.9766 21.0218 73.14 21.6705 73.14 22.4078C73.14 23.1358 72.9766 23.7845 72.65 24.3538C72.3326 24.9138 71.8893 25.3572 71.32 25.6838C70.7506 26.0012 70.1066 26.1598 69.388 26.1598ZM69.388 25.2778C69.92 25.2778 70.3913 25.1612 70.802 24.9278C71.2126 24.6852 71.5346 24.3492 71.768 23.9198C72.0106 23.4812 72.132 22.9772 72.132 22.4078C72.132 21.8292 72.0106 21.3252 71.768 20.8958C71.5346 20.4665 71.2126 20.1352 70.802 19.9018C70.3913 19.6592 69.9246 19.5378 69.402 19.5378C68.8793 19.5378 68.4126 19.6592 68.002 19.9018C67.5913 20.1352 67.2646 20.4665 67.022 20.8958C66.7793 21.3252 66.658 21.8292 66.658 22.4078C66.658 22.9772 66.7793 23.4812 67.022 23.9198C67.2646 24.3492 67.5913 24.6852 68.002 24.9278C68.4126 25.1612 68.8746 25.2778 69.388 25.2778ZM78.9213 18.6698C79.5187 18.6698 80.0413 18.7865 80.4893 19.0198C80.9467 19.2438 81.3013 19.5892 81.5533 20.0558C81.8147 20.5225 81.9453 21.1105 81.9453 21.8198V26.0898H80.9513V21.9178C80.9513 21.1432 80.7553 20.5598 80.3633 20.1678C79.9807 19.7665 79.4393 19.5658 78.7393 19.5658C78.2167 19.5658 77.7593 19.6732 77.3673 19.8878C76.9847 20.0932 76.686 20.3965 76.4713 20.7978C76.266 21.1898 76.1633 21.6658 76.1633 22.2258V26.0898H75.1693V18.7398H76.1213V20.7558L75.9673 20.3778C76.2007 19.8458 76.574 19.4305 77.0873 19.1318C77.6007 18.8238 78.212 18.6698 78.9213 18.6698ZM84.6303 26.0898V18.7398H85.6243V26.0898H84.6303ZM85.1343 17.1158C84.9289 17.1158 84.7563 17.0458 84.6163 16.9058C84.4763 16.7658 84.4063 16.5978 84.4063 16.4018C84.4063 16.2058 84.4763 16.0425 84.6163 15.9118C84.7563 15.7718 84.9289 15.7018 85.1343 15.7018C85.3396 15.7018 85.5123 15.7672 85.6523 15.8978C85.7923 16.0285 85.8623 16.1918 85.8623 16.3878C85.8623 16.5932 85.7923 16.7658 85.6523 16.9058C85.5216 17.0458 85.3489 17.1158 85.1343 17.1158ZM92.996 26.0898V24.4658L92.954 24.1998V21.4838C92.954 20.8585 92.7767 20.3778 92.422 20.0418C92.0767 19.7058 91.5587 19.5378 90.868 19.5378C90.392 19.5378 89.9394 19.6172 89.51 19.7758C89.0807 19.9345 88.7167 20.1445 88.418 20.4058L87.97 19.6638C88.3434 19.3465 88.7914 19.1038 89.314 18.9358C89.8367 18.7585 90.3874 18.6698 90.966 18.6698C91.918 18.6698 92.6507 18.9078 93.164 19.3838C93.6867 19.8505 93.948 20.5645 93.948 21.5258V26.0898H92.996ZM90.462 26.1598C89.9114 26.1598 89.4307 26.0712 89.02 25.8938C88.6187 25.7072 88.3107 25.4552 88.096 25.1378C87.8814 24.8112 87.774 24.4378 87.774 24.0178C87.774 23.6352 87.8627 23.2898 88.04 22.9818C88.2267 22.6645 88.5254 22.4125 88.936 22.2258C89.356 22.0298 89.916 21.9318 90.616 21.9318H93.15V22.6738H90.644C89.9347 22.6738 89.44 22.7998 89.16 23.0518C88.8894 23.3038 88.754 23.6165 88.754 23.9898C88.754 24.4098 88.9174 24.7458 89.244 24.9978C89.5707 25.2498 90.028 25.3758 90.616 25.3758C91.176 25.3758 91.6567 25.2498 92.058 24.9978C92.4687 24.7365 92.7674 24.3632 92.954 23.8778L93.178 24.5638C92.9914 25.0492 92.6647 25.4365 92.198 25.7258C91.7407 26.0152 91.162 26.1598 90.462 26.1598ZM96.6478 26.0898V15.7018H97.6418V26.0898H96.6478ZM102.382 26.1598C101.775 26.1598 101.201 26.0758 100.66 25.9078C100.118 25.7305 99.6936 25.5112 99.3856 25.2498L99.8336 24.4658C100.132 24.6898 100.515 24.8858 100.982 25.0538C101.448 25.2125 101.938 25.2918 102.452 25.2918C103.152 25.2918 103.656 25.1845 103.964 24.9698C104.272 24.7458 104.426 24.4518 104.426 24.0878C104.426 23.8172 104.337 23.6072 104.16 23.4578C103.992 23.2992 103.768 23.1825 103.488 23.1078C103.208 23.0238 102.895 22.9538 102.55 22.8978C102.204 22.8418 101.859 22.7765 101.514 22.7018C101.178 22.6272 100.87 22.5198 100.59 22.3798C100.31 22.2305 100.081 22.0298 99.9036 21.7778C99.7356 21.5258 99.6516 21.1898 99.6516 20.7698C99.6516 20.3685 99.7636 20.0092 99.9876 19.6918C100.212 19.3745 100.538 19.1272 100.968 18.9498C101.406 18.7632 101.938 18.6698 102.564 18.6698C103.04 18.6698 103.516 18.7352 103.992 18.8658C104.468 18.9872 104.86 19.1505 105.168 19.3558L104.734 20.1538C104.407 19.9298 104.057 19.7712 103.684 19.6778C103.31 19.5752 102.937 19.5238 102.564 19.5238C101.901 19.5238 101.411 19.6405 101.094 19.8738C100.786 20.0978 100.632 20.3872 100.632 20.7418C100.632 21.0218 100.716 21.2412 100.884 21.3998C101.061 21.5585 101.29 21.6845 101.57 21.7778C101.859 21.8618 102.172 21.9318 102.508 21.9878C102.853 22.0438 103.194 22.1138 103.53 22.1978C103.875 22.2725 104.188 22.3798 104.468 22.5198C104.757 22.6505 104.986 22.8418 105.154 23.0938C105.331 23.3365 105.42 23.6585 105.42 24.0598C105.42 24.4892 105.298 24.8625 105.056 25.1798C104.822 25.4878 104.477 25.7305 104.02 25.9078C103.572 26.0758 103.026 26.1598 102.382 26.1598Z" fill="#FFBE0D"/>
</svg>
